{"title":"Tom and Jerry The Golden Collection Vol1 720p BluRay DeeJayAhmed","uid":14129423,"size":1065882905,"categoryP":"video","categoryS":"hd___tv_shows","magnet":"?xt=urn:btih:e64e82608c95f87a6a697ba548bbc0d47f75881a&amp;dn=Tom+and+Jerry+The+Golden+Collection+Vol1+720p+BluRay+DeeJayAhmed&amp;tr=udp%3A%2F%2Ftracker.leechers-paradise.org%3A6969&amp;tr=udp%3A%2F%2Fzer0day.ch%3A1337&amp;tr=udp%3A%2F%2Fopen.demonii.com%3A1337&amp;tr=udp%3A%2F%2Ftracker.coppersurfer.tk%3A6969&amp;tr=udp%3A%2F%2Fexodus.desync.com%3A6969","seeders":2,"leechers":1,"uploader":"DeeJayPirate","files":39,"time":1459542720,"description":"Tom and Jerry The Golden Collection Volume One 720p BluRay ReEnc-DeeJayAhmed\r\nDeeJayAhmed  \nhttps://www.DeeJayAhmed.com\r\r\nKeep Seeding!!=)) \r\nDo Comment On The A/V Quality Considering The Size Of The File..!\r\nHelp Me By Donating Bitcoins : 14i1UCWye2SCjoAHR5u6LDswWgAy55dxAv\r\n\r\nVideo \r\nID : 1 \r\nFormat : AVC \r\nFormat/Info : Advanced Video Codec \r\nFormat profile :    \r\nFormat settings, CABAC : Yes \r\nFormat settings, ReFrames : 11 frames \r\nCodec ID : V_MPEG4/ISO/AVC \r\nDuration : 9mn 13s \r\nBit rate : 450 Kbps \r\nWidth : 988 pixels \r\nHeight : 720 pixels \r\nDisplay aspect ratio : 1.372 \r\nFrame rate mode : Constant \r\nFrame rate : 23.976 (24000/1001) fps \r\nColor space : YUV \r\nChroma subsampling : 4:2:0 \r\nBit depth : 8 bits \r\nScan type : Progressive \r\nBits/(Pixel*Frame) : 0.026 \r\nStream size : 29.7 MiB (91%) \r\nDefault : Yes \r\nForced : No \r\n\r\nAudio \r\nID : 2 \r\nFormat : AAC \r\nFormat/Info : Advanced Audio Codec \r\nFormat profile : HE-AAC / LC \r\nCodec ID : A_AAC \r\nDuration : 9mn 16s \r\nBit rate : 43.4 Kbps \r\nChannel(s) : 1 channel \r\nChannel positions : Front: C \r\nSampling rate : 48.0 KHz / 24.0 KHz \r\nFrame rate : 23.438 fps (1024 spf) \r\nCompression mode : Lossy \r\nDelay relative to video : 31ms \r\nStream size : 2.88 MiB (9%) \r\nLanguage : English \r\nDefault : Yes \r\nForced : No","torrent":{"xt":"urn:btih:e64e82608c95f87a6a697ba548bbc0d47f75881a","amp;dn":"Tom+and+Jerry+The+Golden+Collection+Vol1+720p+BluRay+DeeJayAhmed","amp;tr":["udp%3A%2F%2Ftracker.leechers-paradise.org%3A6969","udp%3A%2F%2Fzer0day.ch%3A1337","udp%3A%2F%2Fopen.demonii.com%3A1337","udp%3A%2F%2Ftracker.coppersurfer.tk%3A6969","udp%3A%2F%2Fexodus.desync.com%3A6969"],"infoHash":"e64e82608c95f87a6a697ba548bbc0d47f75881a","infoHashBuffer":{"type":"Buffer","data":[230,78,130,96,140,149,248,122,106,105,123,165,72,187,192,212,127,117,136,26]},"announce":[],"urlList":[]}}